<svg width="78" height="78" viewBox="0 0 78 78" fill="none" xmlns="http://www.w3.org/2000/svg">
<g filter="url(#filter0_d)">
<circle cx="39" cy="35" r="33" stroke="#F0564E" stroke-width="4" stroke-linejoin="round"/>
</g>
<g clip-path="url(#clip0)">
<path d="M65.5842 46.5883H54.1843C53.4361 46.5883 52.7301 46.2416 52.2726 45.6496C51.8151 45.0575 51.6578 44.2868 51.8467 43.5628L54.0232 35.2191C54.3599 33.928 55.6797 33.1547 56.9704 33.4912C58.2614 33.8279 59.0351 35.1475 58.6983 36.4385L57.3111 41.7568H65.5843C66.9185 41.7568 68.0001 42.8384 68.0001 44.1726C68.0001 45.5068 66.9184 46.5883 65.5842 46.5883Z" fill="#414B82"/>
<path d="M60.9077 50.4178H47.4608C45.4893 50.4178 44.3439 48.1719 45.5106 46.5762L54.4104 34.4029C55.1979 33.3257 56.7094 33.0911 57.7863 33.8785C58.8634 34.666 59.0982 36.1774 58.3107 37.2544L52.2195 45.5862H60.9076C62.2418 45.5862 63.3234 46.6678 63.3234 48.002C63.3234 49.3362 62.2419 50.4178 60.9077 50.4178Z" fill="#5F6E9B"/>
<path d="M31.4184 43.7007V48.3481C31.4184 49.1723 32.0866 49.8405 32.9107 49.8405H36.9138C37.738 49.8405 38.4061 49.1723 38.4061 48.3481V43.7007H31.4184Z" fill="#AFE6FF"/>
<path d="M26.3666 15.8448H21.9337C21.0065 15.8448 20.2547 16.5965 20.2547 17.5239V32.3281C20.2547 33.2554 21.0064 34.0071 21.9337 34.0071H26.3666C27.2938 34.0071 28.0456 33.2554 28.0456 32.3281V17.5238C28.0455 16.5965 27.2938 15.8448 26.3666 15.8448Z" fill="#AFE6FF"/>
<path d="M21.9047 33.9185L21.8918 33.9095C20.9877 33.9095 20.2547 34.6425 20.2547 35.5467C20.2547 36.4508 20.9877 37.1838 21.8918 37.1838H25.6435C26.0726 41.8178 29.9706 45.4462 34.7166 45.4462H36.5905C43.0646 45.4462 45.8848 40.3928 45.8848 33.9186H21.9047V33.9185Z" fill="#AFE6FF"/>
<path d="M46.288 21.0249C47.2156 18.7524 46.1254 16.1583 43.853 15.2306C41.5805 14.303 38.9864 15.3932 38.0587 17.6657C37.1311 19.9381 38.2213 22.5323 40.4937 23.4599C42.7662 24.3875 45.3603 23.2973 46.288 21.0249Z" fill="#FFB69E"/>
<path d="M58.5881 34.1383L54.2357 25.3871C52.996 22.8945 49.9559 21.8839 47.4676 23.1523L46.1839 23.8067C44.5184 24.6557 43.8585 26.7031 44.7247 28.367L49.9953 38.4907C50.8354 40.1044 52.8102 40.7522 54.4431 39.9496L57.0567 38.665C58.7325 37.8413 59.4196 35.8102 58.5881 34.1383Z" fill="#64AFFF"/>
<path d="M45.4129 28.6214L44.0976 30.9913L37.9662 31.0257C36.8543 31.0318 35.9581 31.9382 35.9643 33.05C35.9704 34.1581 36.8706 35.052 37.9772 35.052H37.9887L45.2969 35.0112C46.0238 35.0071 46.6921 34.6114 47.0453 33.9761L48.9018 30.6363L47.9249 28.3306L45.4129 28.6214Z" fill="#FFB69E"/>
<path d="M48.9016 30.636L50.8835 27.0704C51.4237 26.0986 51.0738 24.8729 50.1019 24.3327C49.1302 23.7925 47.9044 24.1424 47.3642 25.1143L45.4128 28.6214L48.9016 30.636Z" fill="#4699F2"/>
<path d="M27.7421 52.5511C27.3462 52.4231 27.0162 52.1591 26.7724 51.8218C26.2328 51.0754 24.5127 50.5297 22.4741 50.5297C20.0031 50.5298 18 51.3316 18 52.3207C18 53.3098 20.0031 54.1116 22.4741 54.1116L22.6343 54.1116C23.3002 54.1111 23.9469 54.3004 24.53 54.622C25.062 54.9154 25.8465 55.101 26.7218 55.101C28.3251 55.101 29.6248 54.4786 29.6248 53.7108C29.6248 53.2435 28.5312 52.8062 27.7421 52.5511Z" fill="#AA321E"/>
<path d="M41.3721 45.3184H30.0942C28.965 45.3184 28.0041 46.0378 27.644 47.0432H24.5936C24.5936 46.9006 24.478 46.785 24.3354 46.785H23.5406C23.398 46.785 23.2824 46.9006 23.2824 47.0432V48.7977C23.2824 48.9403 23.398 49.0559 23.5406 49.0559H24.3354C24.478 49.0559 24.5936 48.9403 24.5936 48.7977H27.6441C28.0042 49.8031 28.9651 50.5225 30.0943 50.5225H41.3722C41.8095 50.5225 42.164 50.168 42.164 49.7308V46.1101C42.164 45.6729 41.8095 45.3184 41.3721 45.3184Z" fill="#82BE50"/>
</g>
<defs>
<filter id="filter0_d" x="0" y="0" width="78" height="78" filterUnits="userSpaceOnUse" color-interpolation-filters="sRGB">
<feFlood flood-opacity="0" result="BackgroundImageFix"/>
<feColorMatrix in="SourceAlpha" type="matrix" values="0 0 0 0 0 0 0 0 0 0 0 0 0 0 0 0 0 0 127 0"/>
<feOffset dy="4"/>
<feGaussianBlur stdDeviation="2"/>
<feColorMatrix type="matrix" values="0 0 0 0 0 0 0 0 0 0 0 0 0 0 0 0 0 0 0.25 0"/>
<feBlend mode="normal" in2="BackgroundImageFix" result="effect1_dropShadow"/>
<feBlend mode="normal" in="SourceGraphic" in2="effect1_dropShadow" result="shape"/>
</filter>
<clipPath id="clip0">
<rect width="50" height="50" fill="white" transform="translate(18 10)"/>
</clipPath>
</defs>
</svg>
