<svg width="70" height="70" viewBox="0 0 70 70" fill="none" xmlns="http://www.w3.org/2000/svg">
<path d="M10.607 36.6052H7.25185C6.67453 36.6062 6.17878 37.0159 6.06909 37.5827L0.782884 64.7138C0.645723 65.4225 0.832968 66.1554 1.29327 66.7115C1.75356 67.2676 2.43859 67.5885 3.16047 67.5862H29.1932C29.1932 68.9138 31.8967 70 35.2277 70C38.5587 70 41.2622 68.9138 41.2622 67.5862H67.295C68.0168 67.5885 68.7019 67.2676 69.1622 66.7115C69.6225 66.1554 69.8097 65.4225 69.6725 64.7138L64.3863 37.5827C64.2766 37.0159 63.7809 36.6062 63.2036 36.6052H10.607Z" fill="#E64C3C"/>
<path d="M35.2277 40.1172V62.7586C33.462 61.9917 31.6217 61.4092 29.7363 61.0207C22.5694 59.4625 15.1167 59.8416 8.14491 62.1189C7.74418 62.2412 7.30873 62.1486 6.99237 61.874C6.676 61.5993 6.52323 61.1811 6.58802 60.7672L10.607 36.6051L10.9449 34.5655C11.0314 34.0479 11.4401 33.644 11.9587 33.5638C12.7794 33.4431 13.6242 33.3224 14.4691 33.2258C15.9438 36.0927 18.8968 37.8952 22.1208 37.8965C22.338 37.8965 22.5432 37.8844 22.7484 37.8724C23.552 37.8097 24.3436 37.6392 25.1018 37.3655C25.1043 37.3911 25.1126 37.4159 25.1259 37.4379C26.029 39.9672 28.4265 41.6541 31.1122 41.65C32.6245 41.655 34.0871 41.1103 35.2277 40.1172V40.1172Z" fill="#F5EFCA"/>
<path d="M62.3105 62.119C55.3386 59.8416 47.886 59.4625 40.7191 61.0207C38.8337 61.4093 36.9934 61.9917 35.2277 62.7586V40.1172C35.4815 39.9097 35.7158 39.6795 35.9277 39.4293C37.1336 39.9089 38.4197 40.1547 39.7174 40.1534H39.7898C39.8525 41.0164 40.1814 41.8387 40.7312 42.5069C41.9026 43.6649 43.3669 44.4826 44.9674 44.8724C46.1287 45.2432 47.1647 45.9282 47.9605 46.8517C48.6699 47.7306 49.872 48.0397 50.9174 47.6121C51.8377 47.2145 52.4348 46.3093 52.4381 45.3069C52.4393 45.0446 52.3986 44.7838 52.3174 44.5345C52.1967 44.1603 52.0639 43.7862 51.907 43.4241C51.6044 42.6763 51.2069 41.9706 50.7243 41.3241C53.1179 40.0296 54.7989 37.7233 55.2984 35.0483C55.3346 35 55.3829 34.9517 55.4191 34.9034C55.8321 34.4176 56.1698 33.8724 56.4208 33.2862C57.1208 33.3707 57.8088 33.4552 58.4967 33.5638C59.0153 33.6441 59.424 34.0479 59.5105 34.5655L59.8484 36.6052L63.8674 60.7672C63.9322 61.1812 63.7794 61.5993 63.463 61.874C63.1467 62.1486 62.7112 62.2412 62.3105 62.119V62.119Z" fill="#F9EAB0"/>
<path d="M41.2622 67.5862C41.2622 68.9138 38.5588 70 35.2277 70C31.8967 70 29.1932 68.9138 29.1932 67.5862L29.7363 61.0207C31.6218 61.4093 33.462 61.9917 35.2277 62.7586C36.9934 61.9917 38.8337 61.4093 40.7191 61.0207L41.2622 67.5862Z" fill="#C03A2B"/>
<path d="M56.9518 30.7638C56.9507 31.6322 56.7699 32.491 56.4208 33.2862C56.1698 33.8724 55.8321 34.4176 55.4191 34.9034C55.3829 34.9517 55.3346 35 55.2984 35.0483C54.7988 37.7233 53.1179 40.0296 50.7242 41.3241C51.2068 41.9705 51.6044 42.6763 51.907 43.4241C52.0639 43.7862 52.1967 44.1603 52.3173 44.5345C52.3986 44.7838 52.4393 45.0446 52.438 45.3069C52.4348 46.3093 51.8376 47.2145 50.9173 47.612C49.872 48.0397 48.6699 47.7306 47.9604 46.8517C47.1646 45.9282 46.1287 45.2432 44.9673 44.8724C43.3669 44.4826 41.9026 43.6649 40.7311 42.5069C40.1814 41.8387 39.8524 41.0164 39.7898 40.1534H39.7173C38.4196 40.1547 37.1335 39.9089 35.9277 39.4293C35.7158 39.6794 35.4815 39.9097 35.2277 40.1172C34.0871 41.1103 32.6245 41.655 31.1122 41.65C28.4265 41.6541 26.029 39.9672 25.126 37.4379C25.1126 37.4159 25.1043 37.3911 25.1018 37.3655C24.3436 37.6392 23.552 37.8097 22.7484 37.8724C22.5432 37.8845 22.338 37.8965 22.1208 37.8965C18.8589 37.8943 15.8774 36.0516 14.4166 33.1351C12.9558 30.2186 13.2657 26.7274 15.2173 24.1138C15.0722 23.7196 14.9986 23.3027 15.0001 22.8827C14.9928 21.0991 16.2456 19.5584 17.9932 19.2017C17.9997 19.1951 18.0082 19.1909 18.0173 19.1896C18.0053 19.0448 17.9932 18.9 17.9932 18.7431C17.9916 18.0737 18.1314 17.4115 18.4036 16.8C19.1736 15.019 20.9288 13.8663 22.8691 13.8672C23.6008 13.8637 24.3236 14.0289 24.9811 14.35C26.266 12.1867 28.5961 10.8611 31.1122 10.862C32.8385 10.8558 34.5062 11.4876 35.7949 12.6362C36.5348 11.4428 37.8805 10.7641 39.2799 10.8786C40.6793 10.9931 41.8969 11.8815 42.4329 13.1793C42.7775 13.1408 43.124 13.1207 43.4708 13.1189C48.147 13.1267 52.0385 16.7139 52.426 21.3741H52.4622C53.4565 21.3741 54.41 21.7699 55.112 22.4742C55.814 23.1785 56.2068 24.1332 56.2036 25.1276C56.2012 25.7778 56.0352 26.417 55.7208 26.9862C56.5217 28.0828 56.9529 29.4058 56.9518 30.7638V30.7638Z" fill="#FB7B76"/>
<path d="M35.2277 3.62069C34.5612 3.62069 34.0208 3.08034 34.0208 2.41379V1.2069C34.0208 0.540346 34.5612 0 35.2277 0C35.8943 0 36.4346 0.540346 36.4346 1.2069V2.41379C36.4346 3.08034 35.8943 3.62069 35.2277 3.62069Z" fill="#F0C419"/>
<path d="M54.6793 11.9277C54.1912 11.9276 53.7512 11.6336 53.5645 11.1827C53.3777 10.7317 53.4809 10.2127 53.826 9.86755L55.0329 8.66066C55.3359 8.34692 55.7846 8.22109 56.2066 8.33154C56.6286 8.44199 56.9581 8.77153 57.0686 9.19349C57.179 9.61546 57.0532 10.0642 56.7394 10.3672L55.5325 11.5741C55.3063 11.8005 54.9993 11.9277 54.6793 11.9277V11.9277Z" fill="#F0C419"/>
<path d="M15.7761 11.9277C15.4561 11.9277 15.1491 11.8005 14.9229 11.5741L13.716 10.3672C13.4022 10.0642 13.2764 9.61546 13.3868 9.19349C13.4973 8.77153 13.8268 8.44199 14.2488 8.33154C14.6708 8.22109 15.1195 8.34692 15.4225 8.66066L16.6294 9.86755C16.9745 10.2127 17.0777 10.7317 16.8909 11.1827C16.7042 11.6336 16.2642 11.9276 15.7761 11.9277Z" fill="#F0C419"/>
<path d="M25.0669 6.84913C24.5788 6.84925 24.1386 6.55536 23.9517 6.10447L22.5662 2.75896C22.39 2.35866 22.4442 1.89438 22.7078 1.5454C22.9714 1.19643 23.4032 1.01736 23.8364 1.07735C24.2696 1.13734 24.6365 1.427 24.7953 1.83447L26.182 5.17999C26.3051 5.47588 26.3054 5.80857 26.1829 6.1047C26.0604 6.40083 25.8252 6.63609 25.5291 6.75861C25.3823 6.81843 25.2253 6.84917 25.0669 6.84913V6.84913Z" fill="#F0C419"/>
<path d="M45.3886 6.84913C45.23 6.84879 45.073 6.81764 44.9264 6.75741C44.6305 6.63487 44.3956 6.39981 44.2731 6.10397C44.1506 5.80813 44.1508 5.47575 44.2734 5.17999L45.6602 1.83447C45.819 1.427 46.1859 1.13734 46.6191 1.07735C47.0523 1.01736 47.4841 1.19643 47.7477 1.5454C48.0113 1.89438 48.0654 2.35866 47.8893 2.75896L46.5038 6.10447C46.3168 6.55536 45.8767 6.84925 45.3886 6.84913V6.84913Z" fill="#F0C419"/>
<path d="M59.7579 21.2196C59.1807 21.2214 58.6831 20.8143 58.5705 20.2483C58.4579 19.6822 58.7618 19.1157 59.2956 18.8964L62.6411 17.5109C63.0396 17.3459 63.4957 17.4061 63.8377 17.6686C64.1798 17.9312 64.3557 18.3563 64.2994 18.7838C64.243 19.2113 63.9628 19.5763 63.5644 19.7412L60.2201 21.1267C60.0736 21.1878 59.9166 21.2194 59.7579 21.2196Z" fill="#F0C419"/>
<path d="M10.6975 21.2196C10.5388 21.2194 10.3817 21.1878 10.2353 21.1267L6.89096 19.7412C6.49255 19.5763 6.21239 19.2113 6.15601 18.7838C6.09964 18.3563 6.27561 17.9312 6.61765 17.6686C6.95969 17.4061 7.41582 17.3459 7.81423 17.5109L11.1598 18.8964C11.6936 19.1157 11.9975 19.6822 11.8849 20.2483C11.7723 20.8143 11.2746 21.2214 10.6975 21.2196V21.2196Z" fill="#F0C419"/>
<path d="M55.4191 34.9035C55.3829 34.9517 55.3346 35 55.2984 35.0483C55.0857 36.2106 54.6425 37.3186 53.9949 38.3069C53.3629 38.4863 52.7088 38.5757 52.0518 38.5724C50.8558 38.569 49.6773 38.2837 48.6122 37.7397C48.108 37.4698 47.6345 37.1461 47.2001 36.7742C46.7187 36.9606 46.2077 37.0587 45.6915 37.0638C44.0973 37.072 42.637 36.1734 41.926 34.7466C41.7319 34.3607 41.7585 33.9005 41.9957 33.5396C42.2329 33.1786 42.6447 32.9715 43.0759 32.9965C43.5071 33.0214 43.8923 33.2744 44.0863 33.6604C44.3247 34.118 44.747 34.4521 45.2471 34.5789C45.7473 34.7056 46.2777 34.613 46.7053 34.3242C47.188 33.9947 47.477 33.4482 47.4777 32.8638C47.4795 32.584 47.4176 32.3075 47.2967 32.0552C47.0537 31.4716 47.3021 30.7994 47.8662 30.5142C48.4304 30.2289 49.119 30.4273 49.4449 30.969C49.7384 31.5575 49.8913 32.2062 49.8915 32.8638C49.8817 33.7071 49.6166 34.5276 49.1311 35.2173C49.3242 35.35 49.5174 35.4828 49.7105 35.5914C50.4346 35.9642 51.2373 36.1586 52.0518 36.1586C53.2899 36.1655 54.4876 35.719 55.4191 34.9035V34.9035Z" fill="#FF5364"/>
<path d="M40.6587 30.1652C42.2222 29.088 43.2974 27.4372 43.6506 25.5717C43.7405 25.1447 43.5928 24.7024 43.2644 24.415C42.9359 24.1276 42.4779 24.0399 42.0665 24.1857C41.6552 24.3314 41.3545 24.6879 41.2803 25.118C41.0436 26.3627 40.3254 27.4639 39.2817 28.1823C37.2737 29.5346 34.5807 29.2277 32.9286 27.4581C32.479 26.9649 31.7147 26.9295 31.2214 27.3791C30.7282 27.8287 30.6928 28.593 31.1424 29.0862C32.1662 30.2166 33.5193 30.9968 35.0105 31.3166C34.3343 32.2669 33.2392 32.8302 32.0729 32.8276C31.4063 32.8276 30.866 33.368 30.866 34.0345C30.866 34.7011 31.4063 35.2414 32.0729 35.2414C34.5713 35.2514 36.8131 33.7083 37.6958 31.3709C38.7607 31.1939 39.7728 30.782 40.6587 30.1652V30.1652Z" fill="#FF5364"/>
<path d="M51.907 43.4242C51.0199 43.8769 50.0667 44.1864 49.0829 44.3414C49.019 44.3514 48.9544 44.3555 48.8898 44.3535C48.2542 44.3593 47.7229 43.8712 47.6752 43.2373C47.6274 42.6035 48.0794 42.0412 48.7087 41.9517C49.4085 41.8458 50.0881 41.6342 50.7243 41.3242C51.2069 41.9706 51.6044 42.6764 51.907 43.4242V43.4242Z" fill="#FF5364"/>
<path d="M25.0173 35C24.9564 35.3387 24.9241 35.6818 24.9208 36.0259C24.9183 36.4787 24.9793 36.9296 25.1018 37.3655C24.3436 37.6392 23.552 37.8097 22.7483 37.8724C22.5939 37.2812 22.5128 36.6732 22.507 36.0621C20.3811 35.8302 18.7696 34.0368 18.7656 31.8983C18.7615 31.2261 19.3004 30.6765 19.9725 30.6673C20.2911 30.6653 20.5973 30.7902 20.8237 31.0144C21.0502 31.2385 21.1781 31.5435 21.1794 31.8621V31.8983C21.1974 32.852 21.9524 33.6281 22.9052 33.6724C23.0721 33.1281 23.303 32.6054 23.5932 32.1155C23.7552 31.8388 24.0222 31.6392 24.3334 31.5619C24.6447 31.4847 24.974 31.5363 25.2466 31.7052C25.8141 32.056 25.9966 32.7964 25.657 33.3707C25.3505 33.8724 25.134 34.4238 25.0173 35V35Z" fill="#FF5364"/>
<path d="M42.9639 42.0604C42.2387 42.2924 41.4898 42.4421 40.7312 42.5069C40.1814 41.8388 39.8525 41.0165 39.7898 40.1535C39.9066 40.1557 40.0234 40.1517 40.1398 40.1414C40.8565 40.0959 41.5654 39.9663 42.2519 39.7552C42.6681 39.6124 43.1291 39.7075 43.4548 40.0034C43.7806 40.2992 43.9195 40.7489 43.8174 41.177C43.7152 41.605 43.3882 41.9435 42.9639 42.0604V42.0604Z" fill="#FF5364"/>
<path d="M32.5725 20.5173C32.5725 19.8507 32.0322 19.3104 31.3656 19.3104C28.3009 19.3137 25.8172 21.7973 25.8139 24.8621C25.8139 25.5286 26.3542 26.069 27.0208 26.069C27.6874 26.069 28.2277 25.5286 28.2277 24.8621C28.2277 24.0299 28.5583 23.2317 29.1468 22.6432C29.7353 22.0548 30.5334 21.7242 31.3656 21.7242C32.0322 21.7242 32.5725 21.1838 32.5725 20.5173V20.5173Z" fill="#FF5364"/>
<path d="M16.8201 27.3036C16.6009 27.3038 16.3859 27.2437 16.1986 27.1298C15.2034 26.5293 14.4504 25.5986 14.0708 24.5C13.8872 23.9777 13.7938 23.4279 13.7944 22.8743C13.7944 20.1391 16.0075 17.9195 18.7427 17.9115C20.31 17.9055 21.7855 18.6498 22.7122 19.9138C22.9694 20.26 23.0223 20.7172 22.8511 21.113C22.6798 21.5089 22.3104 21.7833 21.882 21.8329C21.4535 21.8826 21.0311 21.6998 20.7739 21.3536C20.3009 20.7082 19.5478 20.3278 18.7475 20.3302C17.6052 20.3366 16.6065 21.1019 16.3032 22.2032C15.9999 23.3046 16.4661 24.4733 17.4441 25.0636C17.9091 25.3432 18.1304 25.8989 17.9848 26.4216C17.8393 26.9444 17.3628 27.3057 16.8201 27.3048V27.3036Z" fill="#FF5364"/>
<path d="M42.7189 15.8236C42.0524 15.8236 41.512 15.2832 41.512 14.6167C41.512 13.2146 40.3754 12.078 38.9733 12.078C37.5712 12.078 36.4346 13.2146 36.4346 14.6167C36.4346 15.2832 35.8943 15.8236 35.2277 15.8236C34.5612 15.8236 34.0208 15.2832 34.0208 14.6167C34.0208 11.8815 36.2381 9.66418 38.9733 9.66418C41.7085 9.66418 43.9258 11.8815 43.9258 14.6167C43.9258 14.9368 43.7987 15.2438 43.5723 15.4701C43.346 15.6964 43.039 15.8236 42.7189 15.8236V15.8236Z" fill="#FF5364"/>
<path d="M54.0396 29.7391C53.4792 29.7336 52.9964 29.3431 52.8737 28.7963C52.7511 28.2495 53.0211 27.6902 53.5255 27.446C54.0064 27.22 54.4057 26.8507 54.6684 26.3888C55.2824 25.3424 55.0688 24.0077 54.1589 23.2053C53.249 22.4028 51.8981 22.3576 50.9367 23.0976C50.4034 23.4975 49.6469 23.3894 49.247 22.8562C48.8471 22.3229 48.9551 21.5665 49.4884 21.1665C50.333 20.5271 51.3618 20.1782 52.4211 20.1721C54.7529 20.1562 56.781 21.7662 57.2945 24.0408C57.8081 26.3153 56.6685 28.6405 54.5561 29.6281C54.3944 29.7033 54.2179 29.7412 54.0396 29.7391V29.7391Z" fill="#FF5364"/>
</svg>
