<svg width="178" height="178" viewBox="0 0 178 178" fill="none" xmlns="http://www.w3.org/2000/svg">
<path d="M121.37 111.628C120.815 110.087 119.115 109.288 117.575 109.843C116.034 110.399 115.235 112.098 115.79 113.638C115.804 113.676 115.818 113.714 115.834 113.751C118.538 120.809 118.734 126.206 116.367 128.579C113.497 131.443 106.347 130.548 97.2369 126.188C85.0405 119.856 73.9543 111.583 64.4116 101.693C41.1828 78.4615 31.5983 55.6656 37.5263 49.7376C39.4179 48.2437 41.8767 47.6699 44.2343 48.1718C45.8676 48.2919 47.2891 47.0649 47.4092 45.4316C47.5253 43.8529 46.381 42.4613 44.8096 42.2704C40.6864 41.5409 36.4561 42.743 33.3331 45.5325C22.4674 56.3951 39.0773 84.7306 60.2184 105.875C70.2348 116.24 81.8737 124.903 94.6777 131.523C96.9963 132.634 99.3858 133.59 101.83 134.385L80.7605 142.374C52.6252 131.678 32.3711 106.735 27.6778 77.0025C27.4239 75.3844 25.9063 74.2783 24.2883 74.5322C22.6702 74.7861 21.5641 76.3037 21.818 77.9218C22.2836 80.8873 22.9063 83.8528 23.6685 86.7531C30.4973 112.627 48.4835 134.121 72.7477 145.405L38.069 158.527C37.91 158.262 37.7098 158.024 37.4759 157.822C28.6624 150.745 23.1325 140.368 22.1739 129.106L20.7979 112.443C20.6896 110.829 19.2929 109.608 17.6781 109.716C17.6474 109.718 17.6166 109.721 17.5862 109.724C15.9537 109.854 14.7352 111.283 14.865 112.915C14.8654 112.922 14.8661 112.929 14.8668 112.936L16.2666 129.593C17.3089 141.63 22.9241 152.81 31.9571 160.834L7.21879 170.2L11.6671 151.944C12.0552 150.352 11.0795 148.747 9.4874 148.359C7.89529 147.97 6.29021 148.946 5.9021 150.538L0.116386 174.262C-0.273579 175.853 0.69985 177.459 2.29085 177.848C2.87431 177.991 3.48706 177.954 4.04865 177.741L113.773 136.224C113.947 136.138 114.112 136.035 114.265 135.915C116.639 135.551 118.841 134.453 120.561 132.775C123.499 129.836 126.029 123.777 121.37 111.628Z" fill="white"/>
<path d="M149.355 103.98C133.324 97.9782 115.997 96.2957 99.1107 99.1014L88.5149 100.881C86.9065 101.19 85.8534 102.744 86.1625 104.353C86.4613 105.907 87.9274 106.952 89.4935 106.729L100.086 104.964C115.945 102.328 132.219 103.909 147.274 109.549C147.608 109.667 147.96 109.727 148.314 109.724C149.952 109.727 151.282 108.401 151.285 106.763C151.287 105.523 150.517 104.413 149.355 103.98Z" fill="white"/>
<path d="M159.898 58.035C159.193 56.556 157.424 55.928 155.945 56.6324L93.669 86.2875C92.1903 86.9914 91.562 88.7607 92.2659 90.2398C92.2659 90.2401 92.2663 90.2405 92.2663 90.2405C92.9702 91.7192 94.7395 92.3475 96.2186 91.6436C96.219 91.6436 96.219 91.6432 96.2193 91.6432L158.495 61.9881C159.974 61.2838 160.602 59.5141 159.898 58.035Z" fill="white"/>
<path d="M72.0534 20.1269C71.7272 18.5218 70.1618 17.485 68.5567 17.8112C66.9516 18.1374 65.9148 19.7028 66.241 21.3079C66.248 21.3435 66.2562 21.3787 66.2647 21.4139C70.0183 38.1835 68.4714 55.7053 61.8372 71.5578L57.5253 81.9044C56.9022 83.412 57.6136 85.1398 59.1178 85.7715C59.4781 85.9231 59.8655 86.0005 60.2566 85.9998C61.4535 85.9998 62.533 85.2807 62.9937 84.176L67.3086 73.8412C74.4165 56.8603 76.0746 38.0909 72.0534 20.1269Z" fill="white"/>
<path d="M163.142 106.758C158.229 106.758 154.246 110.741 154.246 115.655C154.246 120.568 158.229 124.551 163.142 124.551C168.056 124.551 172.039 120.568 172.039 115.655C172.039 110.741 168.056 106.758 163.142 106.758ZM163.142 118.62C161.504 118.62 160.177 117.293 160.177 115.655C160.177 114.017 161.504 112.689 163.142 112.689C164.78 112.689 166.108 114.017 166.108 115.655C166.108 117.293 164.78 118.62 163.142 118.62Z" fill="white"/>
<path d="M91.9698 23.7241C87.0563 23.7241 83.0732 27.7072 83.0732 32.6207C83.0732 37.5341 87.0563 41.5172 91.9698 41.5172C96.8832 41.5172 100.866 37.5341 100.866 32.6207C100.866 27.7072 96.8832 23.7241 91.9698 23.7241ZM91.9698 35.5862C90.3321 35.5862 89.0043 34.2584 89.0043 32.6207C89.0043 30.983 90.3321 29.6551 91.9698 29.6551C93.6075 29.6551 94.9353 30.983 94.9353 32.6207C94.9353 34.2584 93.6075 35.5862 91.9698 35.5862Z" fill="white"/>
<path d="M65.2802 11.862C68.5558 11.862 71.2112 9.20664 71.2112 5.93102C71.2112 2.65541 68.5558 0 65.2802 0C62.0046 0 59.3492 2.65541 59.3492 5.93102C59.3492 9.20664 62.0046 11.862 65.2802 11.862Z" fill="white"/>
<path d="M148.315 14.8275C146.677 14.8275 145.349 16.1553 145.349 17.793V20.7585C145.349 22.3962 146.677 23.724 148.315 23.724C149.952 23.724 151.28 22.3962 151.28 20.7585V17.793C151.28 16.1553 149.952 14.8275 148.315 14.8275Z" fill="white"/>
<path d="M148.315 0C146.677 0 145.349 1.32781 145.349 2.96551V5.93102C145.349 7.56873 146.677 8.89653 148.315 8.89653C149.952 8.89653 151.28 7.56873 151.28 5.93102V2.96551C151.28 1.32781 149.952 0 148.315 0Z" fill="white"/>
<path d="M157.211 8.89661H154.246C152.608 8.89661 151.28 10.2244 151.28 11.8621C151.28 13.4998 152.608 14.8276 154.246 14.8276H157.211C158.849 14.8276 160.177 13.4998 160.177 11.8621C160.177 10.2244 158.849 8.89661 157.211 8.89661Z" fill="white"/>
<path d="M142.383 8.89661H139.418C137.78 8.89661 136.452 10.2244 136.452 11.8621C136.452 13.4998 137.78 14.8276 139.418 14.8276H142.383C144.021 14.8276 145.349 13.4998 145.349 11.8621C145.349 10.2244 144.021 8.89661 142.383 8.89661Z" fill="white"/>
<path d="M127.556 32.5583H112.666C111.028 32.5583 109.701 33.8862 109.701 35.5239V50.4137C109.701 52.0514 111.028 53.3792 112.666 53.3792H127.556C129.194 53.3792 130.521 52.0514 130.521 50.4137V35.5239C130.521 33.8862 129.194 32.5583 127.556 32.5583ZM124.59 47.4482H115.632V38.4894H124.59V47.4482Z" fill="white"/>
<path d="M105.953 57.3219C104.864 56.1598 103.052 56.0649 101.848 57.1069L72.1928 83.7965C70.9762 84.8923 70.8779 86.7668 71.9733 87.9838C73.0691 89.2004 74.9437 89.2987 76.1606 88.2033L105.816 61.5137C107.011 60.3938 107.072 58.5174 105.953 57.3219Z" fill="white"/>
<path d="M160.177 68.2068C158.539 68.2068 157.211 69.5346 157.211 71.1723V74.1378C157.211 75.7755 158.539 77.1033 160.177 77.1033C161.814 77.1033 163.142 75.7755 163.142 74.1378V71.1723C163.142 69.5346 161.814 68.2068 160.177 68.2068Z" fill="white"/>
<path d="M172.759 67.6967L170.663 65.6001C169.485 64.4621 167.607 64.4947 166.469 65.6728C165.36 66.8219 165.36 68.6438 166.469 69.7933L168.566 71.89C169.744 73.028 171.621 72.9954 172.759 71.8173C173.869 70.6678 173.869 68.8459 172.759 67.6967Z" fill="white"/>
<path d="M175.004 56.3447H172.039C170.401 56.3447 169.073 57.6725 169.073 59.3102C169.073 60.9479 170.401 62.2757 172.039 62.2757H175.004C176.642 62.2757 177.97 60.9479 177.97 59.3102C177.97 57.6725 176.642 56.3447 175.004 56.3447Z" fill="white"/>
<path d="M172.687 46.7306C171.537 45.6207 169.715 45.6207 168.566 46.7306L166.469 48.8272C165.311 49.9856 165.312 51.8631 166.47 53.0212C167.026 53.5768 167.78 53.8893 168.566 53.8893C169.353 53.8893 170.107 53.5765 170.663 53.0204L172.759 50.9238C173.897 49.7458 173.865 47.8682 172.687 46.7306Z" fill="white"/>
<path d="M160.177 41.5172C158.539 41.5172 157.211 42.845 157.211 44.4827V47.4482C157.211 49.0859 158.539 50.4137 160.177 50.4137C161.814 50.4137 163.142 49.0859 163.142 47.4482V44.4827C163.142 42.845 161.814 41.5172 160.177 41.5172Z" fill="white"/>
<path d="M153.884 48.8272L151.787 46.7306C150.609 45.5929 148.732 45.6252 147.594 46.8032C146.484 47.9524 146.484 49.7743 147.594 50.9238L149.69 53.0204C150.869 54.1585 152.746 54.1258 153.884 52.9478C154.994 51.7983 154.994 49.9763 153.884 48.8272Z" fill="white"/>
<path d="M35.4798 12.8228C35.1306 11.75 34.2027 10.9686 33.0866 10.8062L24.3828 9.53997L20.501 1.65468C19.6358 0.18564 17.7434 -0.30404 16.2744 0.561148C15.8229 0.826932 15.4466 1.20318 15.1808 1.65468L11.2812 9.53997L2.5774 10.8062C0.956382 11.0402 -0.167917 12.544 0.0659875 14.1651C0.15903 14.8104 0.462254 15.4069 0.928581 15.8624L7.22436 22.0011L5.74161 30.6692C5.45692 32.2821 6.5334 33.8205 8.14627 34.1052C8.79571 34.2197 9.46443 34.1148 10.0475 33.8068L17.832 29.7025L25.6165 33.7949C27.0662 34.557 28.8592 33.9999 29.6214 32.5501C29.925 31.973 30.0295 31.312 29.9194 30.6692L28.4367 22.0011L34.7354 15.8624C35.5417 15.0732 35.8301 13.8952 35.4798 12.8228ZM23.1699 18.8428C22.4715 19.523 22.1524 20.5031 22.3158 21.4643L23.0513 25.7495L19.211 23.724C18.3476 23.2707 17.3164 23.2707 16.453 23.724L12.5979 25.7465L13.3333 21.4613C13.4998 20.5038 13.1862 19.5252 12.4941 18.8428L9.37732 15.8091L13.6803 15.1833C14.6463 15.0432 15.4815 14.4364 15.9133 13.5612L17.832 9.66749L19.7536 13.5612C20.1851 14.4357 21.0188 15.0421 21.9837 15.1833L26.2837 15.8091L23.1699 18.8428Z" fill="white"/>
<path d="M167.952 148.646H167.94L166.718 146.814C159.868 136.569 149.095 129.603 136.942 127.559C135.32 127.327 133.818 128.454 133.587 130.076C133.363 131.642 134.409 133.108 135.963 133.407C144.729 134.894 152.718 139.348 158.593 146.022C153.654 146.91 149.334 149.877 146.731 154.168C143.537 159.888 145.585 167.114 151.305 170.308C157.025 173.502 164.251 171.454 167.445 165.734C168.665 163.379 169.324 160.773 169.37 158.121C172.525 162.704 172.777 168.689 170.019 173.521C169.184 174.93 169.648 176.749 171.057 177.584C172.465 178.42 174.285 177.956 175.12 176.547C175.147 176.502 175.172 176.456 175.197 176.409C180.627 166.711 177.428 154.455 167.952 148.646ZM162.273 162.839C160.69 165.707 157.082 166.749 154.215 165.166C151.347 163.583 150.305 159.975 151.888 157.108C151.897 157.092 151.906 157.075 151.915 157.059C153.665 154.194 156.616 152.273 159.945 151.834C160.461 151.82 160.971 151.939 161.428 152.178C163.931 153.575 164.064 159.631 162.273 162.839Z" fill="white"/>
</svg>
